<svg xmlns="http://www.w3.org/2000/svg" viewBox="0 0 206.51 215.52"><defs><style>.cls-1{fill:#c1bfdd;stroke:#c1bfdd;}.cls-1,.cls-2,.cls-3,.cls-4,.cls-5,.cls-9{stroke-miterlimit:10;}.cls-1,.cls-2,.cls-3,.cls-4,.cls-8,.cls-9{stroke-width:4.72px;}.cls-2,.cls-5{fill:#667abe;}.cls-2,.cls-8,.cls-9{stroke:#4861af;}.cls-3,.cls-4,.cls-8,.cls-9{fill:none;}.cls-3{stroke:#fff;}.cls-4,.cls-5{stroke:#667abe;}.cls-5{font-size:16.54px;stroke-width:1.57px;font-family:OCRAM;}.cls-6{letter-spacing:-0.26em;}.cls-7{letter-spacing:-0.14em;}.cls-8{stroke-linecap:round;stroke-linejoin:round;}</style></defs><title>volumes</title><g id="Layer_2" data-name="Layer 2"><g id="Layer_1-2" data-name="Layer 1"><circle class="cls-1" cx="64.85" cy="112.96" r="45.51"/><circle class="cls-2" cx="65.02" cy="110.22" r="45.51"/><line class="cls-3" x1="82.84" y1="141.27" x2="70.25" y2="119.17"/><line class="cls-4" x1="99.64" y1="71" x2="107.75" y2="61.69"/><line class="cls-4" x1="114.01" y1="91.71" x2="125.52" y2="87.24"/><line class="cls-4" x1="117.11" y1="116.73" x2="129.39" y2="118.11"/><line class="cls-4" x1="108.23" y1="140.32" x2="118.46" y2="147.24"/><line class="cls-4" x1="89.4" y1="157.08" x2="95.24" y2="167.97"/><line class="cls-4" x1="40.46" y1="157.2" x2="34.81" y2="168.19"/><line class="cls-4" x1="21.55" y1="140.53" x2="11.45" y2="147.64"/><line class="cls-4" x1="12.55" y1="116.99" x2="0.3" y2="118.58"/><line class="cls-4" x1="15.53" y1="91.96" x2="3.95" y2="87.68"/><line class="cls-4" x1="29.8" y1="71.18" x2="21.52" y2="62"/><line class="cls-4" x1="52.09" y1="59.41" x2="49.02" y2="47.44"/><line class="cls-4" x1="77.29" y1="59.35" x2="80.15" y2="47.33"/><text class="cls-5" transform="translate(49.06 180.01)">Vo<tspan class="cls-6" x="23.83" y="0">l</tspan><tspan class="cls-7" x="31.44" y="1.56">.</tspan></text><rect class="cls-1" x="182.75" y="110.47" width="21.39" height="54.75"/><line class="cls-8" x1="193.45" y1="2.36" x2="193.45" y2="213.16"/><rect class="cls-2" x="182.75" y="107.32" width="21.39" height="54.75"/><line class="cls-9" x1="182.59" y1="118.34" x2="203.99" y2="118.34"/><line class="cls-9" x1="182.7" y1="129.24" x2="204.09" y2="129.24"/><line class="cls-9" x1="182.8" y1="140.15" x2="204.2" y2="140.15"/><line class="cls-9" x1="182.91" y1="151.06" x2="204.3" y2="151.06"/><rect class="cls-1" x="146.57" y="32.21" width="21.39" height="54.75"/><line class="cls-8" x1="157.27" y1="213.16" x2="157.27" y2="2.36"/><rect class="cls-2" x="146.57" y="29.07" width="21.39" height="54.75"/><line class="cls-9" x1="146.41" y1="40.08" x2="167.81" y2="40.08"/><line class="cls-9" x1="146.52" y1="50.99" x2="167.91" y2="50.99"/><line class="cls-9" x1="146.62" y1="61.89" x2="168.02" y2="61.89"/><line class="cls-9" x1="146.73" y1="72.8" x2="168.12" y2="72.8"/></g></g></svg>